<?xml version="1.0" encoding="utf-8" standalone="no"?>
<!DOCTYPE svg PUBLIC "-//W3C//DTD SVG 1.1//EN"
  "http://www.w3.org/Graphics/SVG/1.1/DTD/svg11.dtd">
<svg height="360pt" version="1.1" viewBox="0 0 576 360" width="576pt" xmlns="http://www.w3.org/2000/svg" xmlns:xlink="http://www.w3.org/1999/xlink">
 <metadata>
  <rdf:RDF xmlns:cc="http://creativecommons.org/ns#" xmlns:dc="http://purl.org/dc/elements/1.1/" xmlns:rdf="http://www.w3.org/1999/02/22-rdf-syntax-ns#">
   <cc:Work>
    <dc:type rdf:resource="http://purl.org/dc/dcmitype/StillImage"/>
    <dc:date>2021-04-25T15:48:00.004718</dc:date>
    <dc:format>image/svg+xml</dc:format>
    <dc:creator>
     <cc:Agent>
      <dc:title>Matplotlib v3.4.1, https://matplotlib.org/</dc:title>
     </cc:Agent>
    </dc:creator>
   </cc:Work>
  </rdf:RDF>
 </metadata>
 <defs>
  <style type="text/css">*{stroke-linecap:butt;stroke-linejoin:round;}</style>
 </defs>
 <g id="figure_1">
  <g id="patch_1">
   <path d="M 0 360 
L 576 360 
L 576 0 
L 0 0 
z
" style="fill:#ffffff;"/>
  </g>
  <g id="axes_1">
   <g id="patch_2">
    <path d="M 71.93 309.4 
L 565.2 309.4 
L 565.2 10.8 
L 71.93 10.8 
z
" style="fill:#ffffff;"/>
   </g>
   <g id="matplotlib.axis_1">
    <g id="xtick_1">
     <g id="line2d_1">
      <defs>
       <path d="M 0 0 
L 0 3.5 
" id="mdf0d073923" style="stroke:#000000;stroke-width:0.8;"/>
      </defs>
      <g>
       <use style="stroke:#000000;stroke-width:0.8;" x="71.93" xlink:href="#mdf0d073923" y="309.4"/>
      </g>
     </g>
     <g id="text_1">
      <!-- 0 -->
      <g transform="translate(67.48125 327.8525)scale(0.16 -0.16)">
       <defs>
        <path d="M 266 2259 
Q 266 3072 433 3567 
Q 600 4063 929 4331 
Q 1259 4600 1759 4600 
Q 2128 4600 2406 4451 
Q 2684 4303 2865 4023 
Q 3047 3744 3150 3342 
Q 3253 2941 3253 2259 
Q 3253 1453 3087 958 
Q 2922 463 2592 192 
Q 2263 -78 1759 -78 
Q 1097 -78 719 397 
Q 266 969 266 2259 
z
M 844 2259 
Q 844 1131 1108 757 
Q 1372 384 1759 384 
Q 2147 384 2411 759 
Q 2675 1134 2675 2259 
Q 2675 3391 2411 3762 
Q 2147 4134 1753 4134 
Q 1366 4134 1134 3806 
Q 844 3388 844 2259 
z
" id="ArialMT-30" transform="scale(0.015625)"/>
       </defs>
       <use xlink:href="#ArialMT-30"/>
      </g>
     </g>
    </g>
    <g id="xtick_2">
     <g id="line2d_2">
      <g>
       <use style="stroke:#000000;stroke-width:0.8;" x="171.580505" xlink:href="#mdf0d073923" y="309.4"/>
      </g>
     </g>
     <g id="text_2">
      <!-- 20 -->
      <g transform="translate(162.683005 327.8525)scale(0.16 -0.16)">
       <defs>
        <path d="M 3222 541 
L 3222 0 
L 194 0 
Q 188 203 259 391 
Q 375 700 629 1000 
Q 884 1300 1366 1694 
Q 2113 2306 2375 2664 
Q 2638 3022 2638 3341 
Q 2638 3675 2398 3904 
Q 2159 4134 1775 4134 
Q 1369 4134 1125 3890 
Q 881 3647 878 3216 
L 300 3275 
Q 359 3922 746 4261 
Q 1134 4600 1788 4600 
Q 2447 4600 2831 4234 
Q 3216 3869 3216 3328 
Q 3216 3053 3103 2787 
Q 2991 2522 2730 2228 
Q 2469 1934 1863 1422 
Q 1356 997 1212 845 
Q 1069 694 975 541 
L 3222 541 
z
" id="ArialMT-32" transform="scale(0.015625)"/>
       </defs>
       <use xlink:href="#ArialMT-32"/>
       <use x="55.615234" xlink:href="#ArialMT-30"/>
      </g>
     </g>
    </g>
    <g id="xtick_3">
     <g id="line2d_3">
      <g>
       <use style="stroke:#000000;stroke-width:0.8;" x="271.23101" xlink:href="#mdf0d073923" y="309.4"/>
      </g>
     </g>
     <g id="text_3">
      <!-- 40 -->
      <g transform="translate(262.33351 327.8525)scale(0.16 -0.16)">
       <defs>
        <path d="M 2069 0 
L 2069 1097 
L 81 1097 
L 81 1613 
L 2172 4581 
L 2631 4581 
L 2631 1613 
L 3250 1613 
L 3250 1097 
L 2631 1097 
L 2631 0 
L 2069 0 
z
M 2069 1613 
L 2069 3678 
L 634 1613 
L 2069 1613 
z
" id="ArialMT-34" transform="scale(0.015625)"/>
       </defs>
       <use xlink:href="#ArialMT-34"/>
       <use x="55.615234" xlink:href="#ArialMT-30"/>
      </g>
     </g>
    </g>
    <g id="xtick_4">
     <g id="line2d_4">
      <g>
       <use style="stroke:#000000;stroke-width:0.8;" x="370.881515" xlink:href="#mdf0d073923" y="309.4"/>
      </g>
     </g>
     <g id="text_4">
      <!-- 60 -->
      <g transform="translate(361.984015 327.8525)scale(0.16 -0.16)">
       <defs>
        <path d="M 3184 3459 
L 2625 3416 
Q 2550 3747 2413 3897 
Q 2184 4138 1850 4138 
Q 1581 4138 1378 3988 
Q 1113 3794 959 3422 
Q 806 3050 800 2363 
Q 1003 2672 1297 2822 
Q 1591 2972 1913 2972 
Q 2475 2972 2870 2558 
Q 3266 2144 3266 1488 
Q 3266 1056 3080 686 
Q 2894 316 2569 119 
Q 2244 -78 1831 -78 
Q 1128 -78 684 439 
Q 241 956 241 2144 
Q 241 3472 731 4075 
Q 1159 4600 1884 4600 
Q 2425 4600 2770 4297 
Q 3116 3994 3184 3459 
z
M 888 1484 
Q 888 1194 1011 928 
Q 1134 663 1356 523 
Q 1578 384 1822 384 
Q 2178 384 2434 671 
Q 2691 959 2691 1453 
Q 2691 1928 2437 2201 
Q 2184 2475 1800 2475 
Q 1419 2475 1153 2201 
Q 888 1928 888 1484 
z
" id="ArialMT-36" transform="scale(0.015625)"/>
       </defs>
       <use xlink:href="#ArialMT-36"/>
       <use x="55.615234" xlink:href="#ArialMT-30"/>
      </g>
     </g>
    </g>
    <g id="xtick_5">
     <g id="line2d_5">
      <g>
       <use style="stroke:#000000;stroke-width:0.8;" x="470.53202" xlink:href="#mdf0d073923" y="309.4"/>
      </g>
     </g>
     <g id="text_5">
      <!-- 80 -->
      <g transform="translate(461.63452 327.8525)scale(0.16 -0.16)">
       <defs>
        <path d="M 1131 2484 
Q 781 2613 612 2850 
Q 444 3088 444 3419 
Q 444 3919 803 4259 
Q 1163 4600 1759 4600 
Q 2359 4600 2725 4251 
Q 3091 3903 3091 3403 
Q 3091 3084 2923 2848 
Q 2756 2613 2416 2484 
Q 2838 2347 3058 2040 
Q 3278 1734 3278 1309 
Q 3278 722 2862 322 
Q 2447 -78 1769 -78 
Q 1091 -78 675 323 
Q 259 725 259 1325 
Q 259 1772 486 2073 
Q 713 2375 1131 2484 
z
M 1019 3438 
Q 1019 3113 1228 2906 
Q 1438 2700 1772 2700 
Q 2097 2700 2305 2904 
Q 2513 3109 2513 3406 
Q 2513 3716 2298 3927 
Q 2084 4138 1766 4138 
Q 1444 4138 1231 3931 
Q 1019 3725 1019 3438 
z
M 838 1322 
Q 838 1081 952 856 
Q 1066 631 1291 507 
Q 1516 384 1775 384 
Q 2178 384 2440 643 
Q 2703 903 2703 1303 
Q 2703 1709 2433 1975 
Q 2163 2241 1756 2241 
Q 1359 2241 1098 1978 
Q 838 1716 838 1322 
z
" id="ArialMT-38" transform="scale(0.015625)"/>
       </defs>
       <use xlink:href="#ArialMT-38"/>
       <use x="55.615234" xlink:href="#ArialMT-30"/>
      </g>
     </g>
    </g>
    <g id="text_6">
     <!-- Time (sec) -->
     <g transform="translate(281.09 346.68)scale(0.16 -0.16)">
      <defs>
       <path d="M 1659 0 
L 1659 4041 
L 150 4041 
L 150 4581 
L 3781 4581 
L 3781 4041 
L 2266 4041 
L 2266 0 
L 1659 0 
z
" id="ArialMT-54" transform="scale(0.015625)"/>
       <path d="M 425 3934 
L 425 4581 
L 988 4581 
L 988 3934 
L 425 3934 
z
M 425 0 
L 425 3319 
L 988 3319 
L 988 0 
L 425 0 
z
" id="ArialMT-69" transform="scale(0.015625)"/>
       <path d="M 422 0 
L 422 3319 
L 925 3319 
L 925 2853 
Q 1081 3097 1340 3245 
Q 1600 3394 1931 3394 
Q 2300 3394 2536 3241 
Q 2772 3088 2869 2813 
Q 3263 3394 3894 3394 
Q 4388 3394 4653 3120 
Q 4919 2847 4919 2278 
L 4919 0 
L 4359 0 
L 4359 2091 
Q 4359 2428 4304 2576 
Q 4250 2725 4106 2815 
Q 3963 2906 3769 2906 
Q 3419 2906 3187 2673 
Q 2956 2441 2956 1928 
L 2956 0 
L 2394 0 
L 2394 2156 
Q 2394 2531 2256 2718 
Q 2119 2906 1806 2906 
Q 1569 2906 1367 2781 
Q 1166 2656 1075 2415 
Q 984 2175 984 1722 
L 984 0 
L 422 0 
z
" id="ArialMT-6d" transform="scale(0.015625)"/>
       <path d="M 2694 1069 
L 3275 997 
Q 3138 488 2766 206 
Q 2394 -75 1816 -75 
Q 1088 -75 661 373 
Q 234 822 234 1631 
Q 234 2469 665 2931 
Q 1097 3394 1784 3394 
Q 2450 3394 2872 2941 
Q 3294 2488 3294 1666 
Q 3294 1616 3291 1516 
L 816 1516 
Q 847 969 1125 678 
Q 1403 388 1819 388 
Q 2128 388 2347 550 
Q 2566 713 2694 1069 
z
M 847 1978 
L 2700 1978 
Q 2663 2397 2488 2606 
Q 2219 2931 1791 2931 
Q 1403 2931 1139 2672 
Q 875 2413 847 1978 
z
" id="ArialMT-65" transform="scale(0.015625)"/>
       <path id="ArialMT-20" transform="scale(0.015625)"/>
       <path d="M 1497 -1347 
Q 1031 -759 709 28 
Q 388 816 388 1659 
Q 388 2403 628 3084 
Q 909 3875 1497 4659 
L 1900 4659 
Q 1522 4009 1400 3731 
Q 1209 3300 1100 2831 
Q 966 2247 966 1656 
Q 966 153 1900 -1347 
L 1497 -1347 
z
" id="ArialMT-28" transform="scale(0.015625)"/>
       <path d="M 197 991 
L 753 1078 
Q 800 744 1014 566 
Q 1228 388 1613 388 
Q 2000 388 2187 545 
Q 2375 703 2375 916 
Q 2375 1106 2209 1216 
Q 2094 1291 1634 1406 
Q 1016 1563 777 1677 
Q 538 1791 414 1992 
Q 291 2194 291 2438 
Q 291 2659 392 2848 
Q 494 3038 669 3163 
Q 800 3259 1026 3326 
Q 1253 3394 1513 3394 
Q 1903 3394 2198 3281 
Q 2494 3169 2634 2976 
Q 2775 2784 2828 2463 
L 2278 2388 
Q 2241 2644 2061 2787 
Q 1881 2931 1553 2931 
Q 1166 2931 1000 2803 
Q 834 2675 834 2503 
Q 834 2394 903 2306 
Q 972 2216 1119 2156 
Q 1203 2125 1616 2013 
Q 2213 1853 2448 1751 
Q 2684 1650 2818 1456 
Q 2953 1263 2953 975 
Q 2953 694 2789 445 
Q 2625 197 2315 61 
Q 2006 -75 1616 -75 
Q 969 -75 630 194 
Q 291 463 197 991 
z
" id="ArialMT-73" transform="scale(0.015625)"/>
       <path d="M 2588 1216 
L 3141 1144 
Q 3050 572 2676 248 
Q 2303 -75 1759 -75 
Q 1078 -75 664 370 
Q 250 816 250 1647 
Q 250 2184 428 2587 
Q 606 2991 970 3192 
Q 1334 3394 1763 3394 
Q 2303 3394 2647 3120 
Q 2991 2847 3088 2344 
L 2541 2259 
Q 2463 2594 2264 2762 
Q 2066 2931 1784 2931 
Q 1359 2931 1093 2626 
Q 828 2322 828 1663 
Q 828 994 1084 691 
Q 1341 388 1753 388 
Q 2084 388 2306 591 
Q 2528 794 2588 1216 
z
" id="ArialMT-63" transform="scale(0.015625)"/>
       <path d="M 791 -1347 
L 388 -1347 
Q 1322 153 1322 1656 
Q 1322 2244 1188 2822 
Q 1081 3291 891 3722 
Q 769 4003 388 4659 
L 791 4659 
Q 1378 3875 1659 3084 
Q 1900 2403 1900 1659 
Q 1900 816 1576 28 
Q 1253 -759 791 -1347 
z
" id="ArialMT-29" transform="scale(0.015625)"/>
      </defs>
      <use xlink:href="#ArialMT-54"/>
      <use x="57.333984" xlink:href="#ArialMT-69"/>
      <use x="79.550781" xlink:href="#ArialMT-6d"/>
      <use x="162.851562" xlink:href="#ArialMT-65"/>
      <use x="218.466797" xlink:href="#ArialMT-20"/>
      <use x="246.25" xlink:href="#ArialMT-28"/>
      <use x="279.550781" xlink:href="#ArialMT-73"/>
      <use x="329.550781" xlink:href="#ArialMT-65"/>
      <use x="385.166016" xlink:href="#ArialMT-63"/>
      <use x="435.166016" xlink:href="#ArialMT-29"/>
     </g>
    </g>
   </g>
   <g id="matplotlib.axis_2">
    <g id="ytick_1">
     <g id="line2d_6">
      <path clip-path="url(#pfbad9c5083)" d="M 71.93 309.4 
L 565.2 309.4 
" style="fill:none;stroke:#b2b2b2;stroke-dasharray:0.8,1.32;stroke-dashoffset:0;stroke-width:0.8;"/>
     </g>
     <g id="line2d_7">
      <defs>
       <path d="M 0 0 
L -3.5 0 
" id="mb43b40ede2" style="stroke:#000000;stroke-width:0.8;"/>
      </defs>
      <g>
       <use style="stroke:#000000;stroke-width:0.8;" x="71.93" xlink:href="#mb43b40ede2" y="309.4"/>
      </g>
     </g>
     <g id="text_7">
      <!-- 0 -->
      <g transform="translate(56.0325 315.12625)scale(0.16 -0.16)">
       <use xlink:href="#ArialMT-30"/>
      </g>
     </g>
    </g>
    <g id="ytick_2">
     <g id="line2d_8">
      <path clip-path="url(#pfbad9c5083)" d="M 71.93 251.976923 
L 565.2 251.976923 
" style="fill:none;stroke:#b2b2b2;stroke-dasharray:0.8,1.32;stroke-dashoffset:0;stroke-width:0.8;"/>
     </g>
     <g id="line2d_9">
      <g>
       <use style="stroke:#000000;stroke-width:0.8;" x="71.93" xlink:href="#mb43b40ede2" y="251.976923"/>
      </g>
     </g>
     <g id="text_8">
      <!-- 1000 -->
      <g transform="translate(29.34 257.703173)scale(0.16 -0.16)">
       <defs>
        <path d="M 2384 0 
L 1822 0 
L 1822 3584 
Q 1619 3391 1289 3197 
Q 959 3003 697 2906 
L 697 3450 
Q 1169 3672 1522 3987 
Q 1875 4303 2022 4600 
L 2384 4600 
L 2384 0 
z
" id="ArialMT-31" transform="scale(0.015625)"/>
       </defs>
       <use xlink:href="#ArialMT-31"/>
       <use x="55.615234" xlink:href="#ArialMT-30"/>
       <use x="111.230469" xlink:href="#ArialMT-30"/>
       <use x="166.845703" xlink:href="#ArialMT-30"/>
      </g>
     </g>
    </g>
    <g id="ytick_3">
     <g id="line2d_10">
      <path clip-path="url(#pfbad9c5083)" d="M 71.93 194.553846 
L 565.2 194.553846 
" style="fill:none;stroke:#b2b2b2;stroke-dasharray:0.8,1.32;stroke-dashoffset:0;stroke-width:0.8;"/>
     </g>
     <g id="line2d_11">
      <g>
       <use style="stroke:#000000;stroke-width:0.8;" x="71.93" xlink:href="#mb43b40ede2" y="194.553846"/>
      </g>
     </g>
     <g id="text_9">
      <!-- 2000 -->
      <g transform="translate(29.34 200.280096)scale(0.16 -0.16)">
       <use xlink:href="#ArialMT-32"/>
       <use x="55.615234" xlink:href="#ArialMT-30"/>
       <use x="111.230469" xlink:href="#ArialMT-30"/>
       <use x="166.845703" xlink:href="#ArialMT-30"/>
      </g>
     </g>
    </g>
    <g id="ytick_4">
     <g id="line2d_12">
      <path clip-path="url(#pfbad9c5083)" d="M 71.93 137.130769 
L 565.2 137.130769 
" style="fill:none;stroke:#b2b2b2;stroke-dasharray:0.8,1.32;stroke-dashoffset:0;stroke-width:0.8;"/>
     </g>
     <g id="line2d_13">
      <g>
       <use style="stroke:#000000;stroke-width:0.8;" x="71.93" xlink:href="#mb43b40ede2" y="137.130769"/>
      </g>
     </g>
     <g id="text_10">
      <!-- 3000 -->
      <g transform="translate(29.34 142.857019)scale(0.16 -0.16)">
       <defs>
        <path d="M 269 1209 
L 831 1284 
Q 928 806 1161 595 
Q 1394 384 1728 384 
Q 2125 384 2398 659 
Q 2672 934 2672 1341 
Q 2672 1728 2419 1979 
Q 2166 2231 1775 2231 
Q 1616 2231 1378 2169 
L 1441 2663 
Q 1497 2656 1531 2656 
Q 1891 2656 2178 2843 
Q 2466 3031 2466 3422 
Q 2466 3731 2256 3934 
Q 2047 4138 1716 4138 
Q 1388 4138 1169 3931 
Q 950 3725 888 3313 
L 325 3413 
Q 428 3978 793 4289 
Q 1159 4600 1703 4600 
Q 2078 4600 2393 4439 
Q 2709 4278 2876 4000 
Q 3044 3722 3044 3409 
Q 3044 3113 2884 2869 
Q 2725 2625 2413 2481 
Q 2819 2388 3044 2092 
Q 3269 1797 3269 1353 
Q 3269 753 2831 336 
Q 2394 -81 1725 -81 
Q 1122 -81 723 278 
Q 325 638 269 1209 
z
" id="ArialMT-33" transform="scale(0.015625)"/>
       </defs>
       <use xlink:href="#ArialMT-33"/>
       <use x="55.615234" xlink:href="#ArialMT-30"/>
       <use x="111.230469" xlink:href="#ArialMT-30"/>
       <use x="166.845703" xlink:href="#ArialMT-30"/>
      </g>
     </g>
    </g>
    <g id="ytick_5">
     <g id="line2d_14">
      <path clip-path="url(#pfbad9c5083)" d="M 71.93 79.707692 
L 565.2 79.707692 
" style="fill:none;stroke:#b2b2b2;stroke-dasharray:0.8,1.32;stroke-dashoffset:0;stroke-width:0.8;"/>
     </g>
     <g id="line2d_15">
      <g>
       <use style="stroke:#000000;stroke-width:0.8;" x="71.93" xlink:href="#mb43b40ede2" y="79.707692"/>
      </g>
     </g>
     <g id="text_11">
      <!-- 4000 -->
      <g transform="translate(29.34 85.433942)scale(0.16 -0.16)">
       <use xlink:href="#ArialMT-34"/>
       <use x="55.615234" xlink:href="#ArialMT-30"/>
       <use x="111.230469" xlink:href="#ArialMT-30"/>
       <use x="166.845703" xlink:href="#ArialMT-30"/>
      </g>
     </g>
    </g>
    <g id="ytick_6">
     <g id="line2d_16">
      <path clip-path="url(#pfbad9c5083)" d="M 71.93 22.284615 
L 565.2 22.284615 
" style="fill:none;stroke:#b2b2b2;stroke-dasharray:0.8,1.32;stroke-dashoffset:0;stroke-width:0.8;"/>
     </g>
     <g id="line2d_17">
      <g>
       <use style="stroke:#000000;stroke-width:0.8;" x="71.93" xlink:href="#mb43b40ede2" y="22.284615"/>
      </g>
     </g>
     <g id="text_12">
      <!-- 5000 -->
      <g transform="translate(29.34 28.010865)scale(0.16 -0.16)">
       <defs>
        <path d="M 266 1200 
L 856 1250 
Q 922 819 1161 601 
Q 1400 384 1738 384 
Q 2144 384 2425 690 
Q 2706 997 2706 1503 
Q 2706 1984 2436 2262 
Q 2166 2541 1728 2541 
Q 1456 2541 1237 2417 
Q 1019 2294 894 2097 
L 366 2166 
L 809 4519 
L 3088 4519 
L 3088 3981 
L 1259 3981 
L 1013 2750 
Q 1425 3038 1878 3038 
Q 2478 3038 2890 2622 
Q 3303 2206 3303 1553 
Q 3303 931 2941 478 
Q 2500 -78 1738 -78 
Q 1113 -78 717 272 
Q 322 622 266 1200 
z
" id="ArialMT-35" transform="scale(0.015625)"/>
       </defs>
       <use xlink:href="#ArialMT-35"/>
       <use x="55.615234" xlink:href="#ArialMT-30"/>
       <use x="111.230469" xlink:href="#ArialMT-30"/>
       <use x="166.845703" xlink:href="#ArialMT-30"/>
      </g>
     </g>
    </g>
    <g id="text_13">
     <!-- IOPS -->
     <g transform="translate(22.16 179.2175)rotate(-90)scale(0.16 -0.16)">
      <defs>
       <path d="M 597 0 
L 597 4581 
L 1203 4581 
L 1203 0 
L 597 0 
z
" id="ArialMT-49" transform="scale(0.015625)"/>
       <path d="M 309 2231 
Q 309 3372 921 4017 
Q 1534 4663 2503 4663 
Q 3138 4663 3647 4359 
Q 4156 4056 4423 3514 
Q 4691 2972 4691 2284 
Q 4691 1588 4409 1038 
Q 4128 488 3612 205 
Q 3097 -78 2500 -78 
Q 1853 -78 1343 234 
Q 834 547 571 1087 
Q 309 1628 309 2231 
z
M 934 2222 
Q 934 1394 1379 917 
Q 1825 441 2497 441 
Q 3181 441 3623 922 
Q 4066 1403 4066 2288 
Q 4066 2847 3877 3264 
Q 3688 3681 3323 3911 
Q 2959 4141 2506 4141 
Q 1863 4141 1398 3698 
Q 934 3256 934 2222 
z
" id="ArialMT-4f" transform="scale(0.015625)"/>
       <path d="M 494 0 
L 494 4581 
L 2222 4581 
Q 2678 4581 2919 4538 
Q 3256 4481 3484 4323 
Q 3713 4166 3852 3881 
Q 3991 3597 3991 3256 
Q 3991 2672 3619 2267 
Q 3247 1863 2275 1863 
L 1100 1863 
L 1100 0 
L 494 0 
z
M 1100 2403 
L 2284 2403 
Q 2872 2403 3119 2622 
Q 3366 2841 3366 3238 
Q 3366 3525 3220 3729 
Q 3075 3934 2838 4000 
Q 2684 4041 2272 4041 
L 1100 4041 
L 1100 2403 
z
" id="ArialMT-50" transform="scale(0.015625)"/>
       <path d="M 288 1472 
L 859 1522 
Q 900 1178 1048 958 
Q 1197 738 1509 602 
Q 1822 466 2213 466 
Q 2559 466 2825 569 
Q 3091 672 3220 851 
Q 3350 1031 3350 1244 
Q 3350 1459 3225 1620 
Q 3100 1781 2813 1891 
Q 2628 1963 1997 2114 
Q 1366 2266 1113 2400 
Q 784 2572 623 2826 
Q 463 3081 463 3397 
Q 463 3744 659 4045 
Q 856 4347 1234 4503 
Q 1613 4659 2075 4659 
Q 2584 4659 2973 4495 
Q 3363 4331 3572 4012 
Q 3781 3694 3797 3291 
L 3216 3247 
Q 3169 3681 2898 3903 
Q 2628 4125 2100 4125 
Q 1550 4125 1298 3923 
Q 1047 3722 1047 3438 
Q 1047 3191 1225 3031 
Q 1400 2872 2139 2705 
Q 2878 2538 3153 2413 
Q 3553 2228 3743 1945 
Q 3934 1663 3934 1294 
Q 3934 928 3725 604 
Q 3516 281 3123 101 
Q 2731 -78 2241 -78 
Q 1619 -78 1198 103 
Q 778 284 539 648 
Q 300 1013 288 1472 
z
" id="ArialMT-53" transform="scale(0.015625)"/>
      </defs>
      <use xlink:href="#ArialMT-49"/>
      <use x="27.783203" xlink:href="#ArialMT-4f"/>
      <use x="105.566406" xlink:href="#ArialMT-50"/>
      <use x="172.265625" xlink:href="#ArialMT-53"/>
     </g>
    </g>
   </g>
   <g id="line2d_18">
    <path clip-path="url(#pfbad9c5083)" d="M 71.93 137.102058 
L 76.912525 137.130769 
L 81.895051 128.517308 
L 86.877576 137.130769 
L 91.860101 137.102058 
L 96.842626 128.603442 
L 101.825152 137.102058 
L 106.807677 137.130769 
L 111.790202 154.558673 
L 116.772727 309.4 
L 121.755253 309.4 
L 126.737778 309.4 
L 131.720303 309.4 
L 136.702828 309.4 
L 141.685354 277.616327 
L 146.667879 126.651058 
L 151.650404 137.130769 
L 156.632929 137.102058 
L 161.615455 126.5075 
L 166.59798 137.102058 
L 171.580505 137.130769 
L 176.56303 135.408077 
L 181.545556 128.201481 
L 186.528081 137.130769 
L 191.510606 200.726827 
L 196.493131 309.4 
L 201.475657 309.4 
L 206.458182 309.4 
L 211.440707 309.4 
L 216.423232 309.4 
L 221.405758 231.448173 
L 226.388283 126.995596 
L 231.370808 137.102058 
L 236.353333 137.102058 
L 241.335859 126.765904 
L 246.318384 137.130769 
L 251.300909 137.102058 
L 256.283434 137.130769 
L 261.26596 126.5075 
L 266.248485 137.130769 
L 271.23101 246.292038 
L 276.213535 309.4 
L 281.196061 309.4 
L 286.178586 309.4 
L 291.161111 309.4 
L 296.143636 309.4 
L 301.126162 185.911673 
L 306.108687 127.512404 
L 311.091212 137.130769 
L 316.073737 137.102058 
L 321.056263 137.102058 
L 326.038788 127.167865 
L 331.021313 137.130769 
L 336.003838 137.102058 
L 340.986364 126.852038 
L 345.968889 137.102058 
L 350.951414 290.593942 
L 355.933939 309.4 
L 360.916465 309.4 
L 365.89899 309.4 
L 370.881515 309.4 
L 375.86404 309.4 
L 380.846566 141.638481 
L 385.829091 126.852038 
L 390.811616 137.102058 
L 395.794141 137.130769 
L 400.776667 137.130769 
L 405.759192 127.024308 
L 410.741717 137.102058 
L 415.724242 137.102058 
L 420.706768 126.966885 
L 425.689293 163.286981 
L 430.671818 309.4 
L 435.654343 309.4 
L 440.636869 309.4 
L 445.619394 309.4 
L 450.601919 309.4 
L 455.584444 309.4 
L 460.56697 309.4 
L 465.549495 309.4 
L 470.53202 309.4 
L 475.514545 309.4 
L 480.497071 309.4 
L 485.479596 309.4 
L 490.462121 309.4 
L 495.444646 309.4 
L 500.427172 309.4 
L 505.409697 309.4 
L 510.392222 309.4 
L 515.374747 309.4 
L 520.357273 309.4 
L 525.339798 309.4 
L 530.322323 309.4 
L 535.304848 309.4 
L 540.287374 309.4 
L 545.269899 309.4 
L 550.252424 309.4 
L 555.234949 309.4 
L 560.217475 309.4 
L 565.2 309.4 
" style="fill:none;stroke:#d73027;stroke-linecap:square;stroke-width:2;"/>
    <defs>
     <path d="M -3 3 
L 3 -3 
M -3 -3 
L 3 3 
" id="md6ee5d9e43" style="stroke:#d73027;"/>
    </defs>
    <g clip-path="url(#pfbad9c5083)">
     <use style="fill:#d73027;stroke:#d73027;" x="71.93" xlink:href="#md6ee5d9e43" y="137.102058"/>
     <use style="fill:#d73027;stroke:#d73027;" x="76.912525" xlink:href="#md6ee5d9e43" y="137.130769"/>
     <use style="fill:#d73027;stroke:#d73027;" x="81.895051" xlink:href="#md6ee5d9e43" y="128.517308"/>
     <use style="fill:#d73027;stroke:#d73027;" x="86.877576" xlink:href="#md6ee5d9e43" y="137.130769"/>
     <use style="fill:#d73027;stroke:#d73027;" x="91.860101" xlink:href="#md6ee5d9e43" y="137.102058"/>
     <use style="fill:#d73027;stroke:#d73027;" x="96.842626" xlink:href="#md6ee5d9e43" y="128.603442"/>
     <use style="fill:#d73027;stroke:#d73027;" x="101.825152" xlink:href="#md6ee5d9e43" y="137.102058"/>
     <use style="fill:#d73027;stroke:#d73027;" x="106.807677" xlink:href="#md6ee5d9e43" y="137.130769"/>
     <use style="fill:#d73027;stroke:#d73027;" x="111.790202" xlink:href="#md6ee5d9e43" y="154.558673"/>
     <use style="fill:#d73027;stroke:#d73027;" x="116.772727" xlink:href="#md6ee5d9e43" y="309.4"/>
     <use style="fill:#d73027;stroke:#d73027;" x="121.755253" xlink:href="#md6ee5d9e43" y="309.4"/>
     <use style="fill:#d73027;stroke:#d73027;" x="126.737778" xlink:href="#md6ee5d9e43" y="309.4"/>
     <use style="fill:#d73027;stroke:#d73027;" x="131.720303" xlink:href="#md6ee5d9e43" y="309.4"/>
     <use style="fill:#d73027;stroke:#d73027;" x="136.702828" xlink:href="#md6ee5d9e43" y="309.4"/>
     <use style="fill:#d73027;stroke:#d73027;" x="141.685354" xlink:href="#md6ee5d9e43" y="277.616327"/>
     <use style="fill:#d73027;stroke:#d73027;" x="146.667879" xlink:href="#md6ee5d9e43" y="126.651058"/>
     <use style="fill:#d73027;stroke:#d73027;" x="151.650404" xlink:href="#md6ee5d9e43" y="137.130769"/>
     <use style="fill:#d73027;stroke:#d73027;" x="156.632929" xlink:href="#md6ee5d9e43" y="137.102058"/>
     <use style="fill:#d73027;stroke:#d73027;" x="161.615455" xlink:href="#md6ee5d9e43" y="126.5075"/>
     <use style="fill:#d73027;stroke:#d73027;" x="166.59798" xlink:href="#md6ee5d9e43" y="137.102058"/>
     <use style="fill:#d73027;stroke:#d73027;" x="171.580505" xlink:href="#md6ee5d9e43" y="137.130769"/>
     <use style="fill:#d73027;stroke:#d73027;" x="176.56303" xlink:href="#md6ee5d9e43" y="135.408077"/>
     <use style="fill:#d73027;stroke:#d73027;" x="181.545556" xlink:href="#md6ee5d9e43" y="128.201481"/>
     <use style="fill:#d73027;stroke:#d73027;" x="186.528081" xlink:href="#md6ee5d9e43" y="137.130769"/>
     <use style="fill:#d73027;stroke:#d73027;" x="191.510606" xlink:href="#md6ee5d9e43" y="200.726827"/>
     <use style="fill:#d73027;stroke:#d73027;" x="196.493131" xlink:href="#md6ee5d9e43" y="309.4"/>
     <use style="fill:#d73027;stroke:#d73027;" x="201.475657" xlink:href="#md6ee5d9e43" y="309.4"/>
     <use style="fill:#d73027;stroke:#d73027;" x="206.458182" xlink:href="#md6ee5d9e43" y="309.4"/>
     <use style="fill:#d73027;stroke:#d73027;" x="211.440707" xlink:href="#md6ee5d9e43" y="309.4"/>
     <use style="fill:#d73027;stroke:#d73027;" x="216.423232" xlink:href="#md6ee5d9e43" y="309.4"/>
     <use style="fill:#d73027;stroke:#d73027;" x="221.405758" xlink:href="#md6ee5d9e43" y="231.448173"/>
     <use style="fill:#d73027;stroke:#d73027;" x="226.388283" xlink:href="#md6ee5d9e43" y="126.995596"/>
     <use style="fill:#d73027;stroke:#d73027;" x="231.370808" xlink:href="#md6ee5d9e43" y="137.102058"/>
     <use style="fill:#d73027;stroke:#d73027;" x="236.353333" xlink:href="#md6ee5d9e43" y="137.102058"/>
     <use style="fill:#d73027;stroke:#d73027;" x="241.335859" xlink:href="#md6ee5d9e43" y="126.765904"/>
     <use style="fill:#d73027;stroke:#d73027;" x="246.318384" xlink:href="#md6ee5d9e43" y="137.130769"/>
     <use style="fill:#d73027;stroke:#d73027;" x="251.300909" xlink:href="#md6ee5d9e43" y="137.102058"/>
     <use style="fill:#d73027;stroke:#d73027;" x="256.283434" xlink:href="#md6ee5d9e43" y="137.130769"/>
     <use style="fill:#d73027;stroke:#d73027;" x="261.26596" xlink:href="#md6ee5d9e43" y="126.5075"/>
     <use style="fill:#d73027;stroke:#d73027;" x="266.248485" xlink:href="#md6ee5d9e43" y="137.130769"/>
     <use style="fill:#d73027;stroke:#d73027;" x="271.23101" xlink:href="#md6ee5d9e43" y="246.292038"/>
     <use style="fill:#d73027;stroke:#d73027;" x="276.213535" xlink:href="#md6ee5d9e43" y="309.4"/>
     <use style="fill:#d73027;stroke:#d73027;" x="281.196061" xlink:href="#md6ee5d9e43" y="309.4"/>
     <use style="fill:#d73027;stroke:#d73027;" x="286.178586" xlink:href="#md6ee5d9e43" y="309.4"/>
     <use style="fill:#d73027;stroke:#d73027;" x="291.161111" xlink:href="#md6ee5d9e43" y="309.4"/>
     <use style="fill:#d73027;stroke:#d73027;" x="296.143636" xlink:href="#md6ee5d9e43" y="309.4"/>
     <use style="fill:#d73027;stroke:#d73027;" x="301.126162" xlink:href="#md6ee5d9e43" y="185.911673"/>
     <use style="fill:#d73027;stroke:#d73027;" x="306.108687" xlink:href="#md6ee5d9e43" y="127.512404"/>
     <use style="fill:#d73027;stroke:#d73027;" x="311.091212" xlink:href="#md6ee5d9e43" y="137.130769"/>
     <use style="fill:#d73027;stroke:#d73027;" x="316.073737" xlink:href="#md6ee5d9e43" y="137.102058"/>
     <use style="fill:#d73027;stroke:#d73027;" x="321.056263" xlink:href="#md6ee5d9e43" y="137.102058"/>
     <use style="fill:#d73027;stroke:#d73027;" x="326.038788" xlink:href="#md6ee5d9e43" y="127.167865"/>
     <use style="fill:#d73027;stroke:#d73027;" x="331.021313" xlink:href="#md6ee5d9e43" y="137.130769"/>
     <use style="fill:#d73027;stroke:#d73027;" x="336.003838" xlink:href="#md6ee5d9e43" y="137.102058"/>
     <use style="fill:#d73027;stroke:#d73027;" x="340.986364" xlink:href="#md6ee5d9e43" y="126.852038"/>
     <use style="fill:#d73027;stroke:#d73027;" x="345.968889" xlink:href="#md6ee5d9e43" y="137.102058"/>
     <use style="fill:#d73027;stroke:#d73027;" x="350.951414" xlink:href="#md6ee5d9e43" y="290.593942"/>
     <use style="fill:#d73027;stroke:#d73027;" x="355.933939" xlink:href="#md6ee5d9e43" y="309.4"/>
     <use style="fill:#d73027;stroke:#d73027;" x="360.916465" xlink:href="#md6ee5d9e43" y="309.4"/>
     <use style="fill:#d73027;stroke:#d73027;" x="365.89899" xlink:href="#md6ee5d9e43" y="309.4"/>
     <use style="fill:#d73027;stroke:#d73027;" x="370.881515" xlink:href="#md6ee5d9e43" y="309.4"/>
     <use style="fill:#d73027;stroke:#d73027;" x="375.86404" xlink:href="#md6ee5d9e43" y="309.4"/>
     <use style="fill:#d73027;stroke:#d73027;" x="380.846566" xlink:href="#md6ee5d9e43" y="141.638481"/>
     <use style="fill:#d73027;stroke:#d73027;" x="385.829091" xlink:href="#md6ee5d9e43" y="126.852038"/>
     <use style="fill:#d73027;stroke:#d73027;" x="390.811616" xlink:href="#md6ee5d9e43" y="137.102058"/>
     <use style="fill:#d73027;stroke:#d73027;" x="395.794141" xlink:href="#md6ee5d9e43" y="137.130769"/>
     <use style="fill:#d73027;stroke:#d73027;" x="400.776667" xlink:href="#md6ee5d9e43" y="137.130769"/>
     <use style="fill:#d73027;stroke:#d73027;" x="405.759192" xlink:href="#md6ee5d9e43" y="127.024308"/>
     <use style="fill:#d73027;stroke:#d73027;" x="410.741717" xlink:href="#md6ee5d9e43" y="137.102058"/>
     <use style="fill:#d73027;stroke:#d73027;" x="415.724242" xlink:href="#md6ee5d9e43" y="137.102058"/>
     <use style="fill:#d73027;stroke:#d73027;" x="420.706768" xlink:href="#md6ee5d9e43" y="126.966885"/>
     <use style="fill:#d73027;stroke:#d73027;" x="425.689293" xlink:href="#md6ee5d9e43" y="163.286981"/>
     <use style="fill:#d73027;stroke:#d73027;" x="430.671818" xlink:href="#md6ee5d9e43" y="309.4"/>
     <use style="fill:#d73027;stroke:#d73027;" x="435.654343" xlink:href="#md6ee5d9e43" y="309.4"/>
     <use style="fill:#d73027;stroke:#d73027;" x="440.636869" xlink:href="#md6ee5d9e43" y="309.4"/>
     <use style="fill:#d73027;stroke:#d73027;" x="445.619394" xlink:href="#md6ee5d9e43" y="309.4"/>
     <use style="fill:#d73027;stroke:#d73027;" x="450.601919" xlink:href="#md6ee5d9e43" y="309.4"/>
     <use style="fill:#d73027;stroke:#d73027;" x="455.584444" xlink:href="#md6ee5d9e43" y="309.4"/>
     <use style="fill:#d73027;stroke:#d73027;" x="460.56697" xlink:href="#md6ee5d9e43" y="309.4"/>
     <use style="fill:#d73027;stroke:#d73027;" x="465.549495" xlink:href="#md6ee5d9e43" y="309.4"/>
     <use style="fill:#d73027;stroke:#d73027;" x="470.53202" xlink:href="#md6ee5d9e43" y="309.4"/>
     <use style="fill:#d73027;stroke:#d73027;" x="475.514545" xlink:href="#md6ee5d9e43" y="309.4"/>
     <use style="fill:#d73027;stroke:#d73027;" x="480.497071" xlink:href="#md6ee5d9e43" y="309.4"/>
     <use style="fill:#d73027;stroke:#d73027;" x="485.479596" xlink:href="#md6ee5d9e43" y="309.4"/>
     <use style="fill:#d73027;stroke:#d73027;" x="490.462121" xlink:href="#md6ee5d9e43" y="309.4"/>
     <use style="fill:#d73027;stroke:#d73027;" x="495.444646" xlink:href="#md6ee5d9e43" y="309.4"/>
     <use style="fill:#d73027;stroke:#d73027;" x="500.427172" xlink:href="#md6ee5d9e43" y="309.4"/>
     <use style="fill:#d73027;stroke:#d73027;" x="505.409697" xlink:href="#md6ee5d9e43" y="309.4"/>
     <use style="fill:#d73027;stroke:#d73027;" x="510.392222" xlink:href="#md6ee5d9e43" y="309.4"/>
     <use style="fill:#d73027;stroke:#d73027;" x="515.374747" xlink:href="#md6ee5d9e43" y="309.4"/>
     <use style="fill:#d73027;stroke:#d73027;" x="520.357273" xlink:href="#md6ee5d9e43" y="309.4"/>
     <use style="fill:#d73027;stroke:#d73027;" x="525.339798" xlink:href="#md6ee5d9e43" y="309.4"/>
     <use style="fill:#d73027;stroke:#d73027;" x="530.322323" xlink:href="#md6ee5d9e43" y="309.4"/>
     <use style="fill:#d73027;stroke:#d73027;" x="535.304848" xlink:href="#md6ee5d9e43" y="309.4"/>
     <use style="fill:#d73027;stroke:#d73027;" x="540.287374" xlink:href="#md6ee5d9e43" y="309.4"/>
     <use style="fill:#d73027;stroke:#d73027;" x="545.269899" xlink:href="#md6ee5d9e43" y="309.4"/>
     <use style="fill:#d73027;stroke:#d73027;" x="550.252424" xlink:href="#md6ee5d9e43" y="309.4"/>
     <use style="fill:#d73027;stroke:#d73027;" x="555.234949" xlink:href="#md6ee5d9e43" y="309.4"/>
     <use style="fill:#d73027;stroke:#d73027;" x="560.217475" xlink:href="#md6ee5d9e43" y="309.4"/>
     <use style="fill:#d73027;stroke:#d73027;" x="565.2" xlink:href="#md6ee5d9e43" y="309.4"/>
    </g>
   </g>
   <g id="line2d_19">
    <path clip-path="url(#pfbad9c5083)" d="M 71.93 223.093115 
L 76.912525 222.317904 
L 81.895051 233.170865 
L 86.877576 222.633731 
L 91.860101 223.093115 
L 96.842626 233.170865 
L 101.825152 222.490173 
L 106.807677 223.437654 
L 111.790202 222.43275 
L 116.772727 222.806 
L 121.755253 207.445327 
L 126.737778 207.330481 
L 131.720303 222.719865 
L 136.702828 207.186923 
L 141.685354 209.770962 
L 146.667879 233.658962 
L 151.650404 223.724769 
L 156.632929 222.43275 
L 161.615455 232.481788 
L 166.59798 222.260481 
L 171.580505 221.370423 
L 176.56303 222.490173 
L 181.545556 230.816519 
L 186.528081 222.662442 
L 191.510606 214.508365 
L 196.493131 222.777288 
L 201.475657 207.560173 
L 206.458182 207.359192 
L 211.440707 222.633731 
L 216.423232 207.301769 
L 221.405758 214.22125 
L 226.388283 233.343135 
L 231.370808 223.839615 
L 236.353333 222.662442 
L 241.335859 232.252096 
L 246.318384 222.375327 
L 251.300909 222.834712 
L 256.283434 222.920846 
L 261.26596 232.338231 
L 266.248485 221.887231 
L 271.23101 210.402615 
L 276.213535 222.863423 
L 281.196061 207.330481 
L 286.178586 207.301769 
L 291.161111 222.547596 
L 296.143636 207.100788 
L 301.126162 220.422942 
L 306.108687 235.898462 
L 311.091212 223.5525 
L 316.073737 223.236673 
L 321.056263 223.638635 
L 326.038788 232.855038 
L 331.021313 222.576308 
L 336.003838 222.605019 
L 340.986364 232.797615 
L 345.968889 221.313 
L 350.951414 206.555269 
L 355.933939 222.691154 
L 360.916465 207.359192 
L 365.89899 207.330481 
L 370.881515 222.633731 
L 375.86404 207.273058 
L 380.846566 223.006981 
L 385.829091 233.429269 
L 390.811616 223.121827 
L 395.794141 222.863423 
L 400.776667 222.777288 
L 405.759192 232.941173 
L 410.741717 222.002077 
L 415.724242 222.404038 
L 420.706768 232.539212 
L 425.689293 218.384423 
L 430.671818 207.330481 
L 435.654343 222.691154 
L 440.636869 207.301769 
L 445.619394 207.301769 
L 450.601919 222.605019 
L 455.584444 207.330481 
L 460.56697 207.330481 
L 465.549495 222.605019 
L 470.53202 207.387904 
L 475.514545 207.387904 
L 480.497071 222.662442 
L 485.479596 207.675019 
L 490.462121 207.330481 
L 495.444646 222.633731 
L 500.427172 207.50275 
L 505.409697 207.560173 
L 510.392222 222.806 
L 515.374747 207.416615 
L 520.357273 207.416615 
L 525.339798 222.633731 
L 530.322323 207.301769 
L 535.304848 207.330481 
L 540.287374 264.98325 
L 545.269899 309.4 
L 550.252424 309.4 
L 555.234949 309.4 
L 560.217475 309.4 
L 565.2 309.4 
" style="fill:none;stroke:#f46d43;stroke-dasharray:7.4,3.2;stroke-dashoffset:0;stroke-width:2;"/>
    <defs>
     <path d="M 0 3 
C 0.795609 3 1.55874 2.683901 2.12132 2.12132 
C 2.683901 1.55874 3 0.795609 3 0 
C 3 -0.795609 2.683901 -1.55874 2.12132 -2.12132 
C 1.55874 -2.683901 0.795609 -3 0 -3 
C -0.795609 -3 -1.55874 -2.683901 -2.12132 -2.12132 
C -2.683901 -1.55874 -3 -0.795609 -3 0 
C -3 0.795609 -2.683901 1.55874 -2.12132 2.12132 
C -1.55874 2.683901 -0.795609 3 0 3 
z
" id="m4caa3b425e" style="stroke:#f46d43;"/>
    </defs>
    <g clip-path="url(#pfbad9c5083)">
     <use style="fill:#f46d43;stroke:#f46d43;" x="71.93" xlink:href="#m4caa3b425e" y="223.093115"/>
     <use style="fill:#f46d43;stroke:#f46d43;" x="76.912525" xlink:href="#m4caa3b425e" y="222.317904"/>
     <use style="fill:#f46d43;stroke:#f46d43;" x="81.895051" xlink:href="#m4caa3b425e" y="233.170865"/>
     <use style="fill:#f46d43;stroke:#f46d43;" x="86.877576" xlink:href="#m4caa3b425e" y="222.633731"/>
     <use style="fill:#f46d43;stroke:#f46d43;" x="91.860101" xlink:href="#m4caa3b425e" y="223.093115"/>
     <use style="fill:#f46d43;stroke:#f46d43;" x="96.842626" xlink:href="#m4caa3b425e" y="233.170865"/>
     <use style="fill:#f46d43;stroke:#f46d43;" x="101.825152" xlink:href="#m4caa3b425e" y="222.490173"/>
     <use style="fill:#f46d43;stroke:#f46d43;" x="106.807677" xlink:href="#m4caa3b425e" y="223.437654"/>
     <use style="fill:#f46d43;stroke:#f46d43;" x="111.790202" xlink:href="#m4caa3b425e" y="222.43275"/>
     <use style="fill:#f46d43;stroke:#f46d43;" x="116.772727" xlink:href="#m4caa3b425e" y="222.806"/>
     <use style="fill:#f46d43;stroke:#f46d43;" x="121.755253" xlink:href="#m4caa3b425e" y="207.445327"/>
     <use style="fill:#f46d43;stroke:#f46d43;" x="126.737778" xlink:href="#m4caa3b425e" y="207.330481"/>
     <use style="fill:#f46d43;stroke:#f46d43;" x="131.720303" xlink:href="#m4caa3b425e" y="222.719865"/>
     <use style="fill:#f46d43;stroke:#f46d43;" x="136.702828" xlink:href="#m4caa3b425e" y="207.186923"/>
     <use style="fill:#f46d43;stroke:#f46d43;" x="141.685354" xlink:href="#m4caa3b425e" y="209.770962"/>
     <use style="fill:#f46d43;stroke:#f46d43;" x="146.667879" xlink:href="#m4caa3b425e" y="233.658962"/>
     <use style="fill:#f46d43;stroke:#f46d43;" x="151.650404" xlink:href="#m4caa3b425e" y="223.724769"/>
     <use style="fill:#f46d43;stroke:#f46d43;" x="156.632929" xlink:href="#m4caa3b425e" y="222.43275"/>
     <use style="fill:#f46d43;stroke:#f46d43;" x="161.615455" xlink:href="#m4caa3b425e" y="232.481788"/>
     <use style="fill:#f46d43;stroke:#f46d43;" x="166.59798" xlink:href="#m4caa3b425e" y="222.260481"/>
     <use style="fill:#f46d43;stroke:#f46d43;" x="171.580505" xlink:href="#m4caa3b425e" y="221.370423"/>
     <use style="fill:#f46d43;stroke:#f46d43;" x="176.56303" xlink:href="#m4caa3b425e" y="222.490173"/>
     <use style="fill:#f46d43;stroke:#f46d43;" x="181.545556" xlink:href="#m4caa3b425e" y="230.816519"/>
     <use style="fill:#f46d43;stroke:#f46d43;" x="186.528081" xlink:href="#m4caa3b425e" y="222.662442"/>
     <use style="fill:#f46d43;stroke:#f46d43;" x="191.510606" xlink:href="#m4caa3b425e" y="214.508365"/>
     <use style="fill:#f46d43;stroke:#f46d43;" x="196.493131" xlink:href="#m4caa3b425e" y="222.777288"/>
     <use style="fill:#f46d43;stroke:#f46d43;" x="201.475657" xlink:href="#m4caa3b425e" y="207.560173"/>
     <use style="fill:#f46d43;stroke:#f46d43;" x="206.458182" xlink:href="#m4caa3b425e" y="207.359192"/>
     <use style="fill:#f46d43;stroke:#f46d43;" x="211.440707" xlink:href="#m4caa3b425e" y="222.633731"/>
     <use style="fill:#f46d43;stroke:#f46d43;" x="216.423232" xlink:href="#m4caa3b425e" y="207.301769"/>
     <use style="fill:#f46d43;stroke:#f46d43;" x="221.405758" xlink:href="#m4caa3b425e" y="214.22125"/>
     <use style="fill:#f46d43;stroke:#f46d43;" x="226.388283" xlink:href="#m4caa3b425e" y="233.343135"/>
     <use style="fill:#f46d43;stroke:#f46d43;" x="231.370808" xlink:href="#m4caa3b425e" y="223.839615"/>
     <use style="fill:#f46d43;stroke:#f46d43;" x="236.353333" xlink:href="#m4caa3b425e" y="222.662442"/>
     <use style="fill:#f46d43;stroke:#f46d43;" x="241.335859" xlink:href="#m4caa3b425e" y="232.252096"/>
     <use style="fill:#f46d43;stroke:#f46d43;" x="246.318384" xlink:href="#m4caa3b425e" y="222.375327"/>
     <use style="fill:#f46d43;stroke:#f46d43;" x="251.300909" xlink:href="#m4caa3b425e" y="222.834712"/>
     <use style="fill:#f46d43;stroke:#f46d43;" x="256.283434" xlink:href="#m4caa3b425e" y="222.920846"/>
     <use style="fill:#f46d43;stroke:#f46d43;" x="261.26596" xlink:href="#m4caa3b425e" y="232.338231"/>
     <use style="fill:#f46d43;stroke:#f46d43;" x="266.248485" xlink:href="#m4caa3b425e" y="221.887231"/>
     <use style="fill:#f46d43;stroke:#f46d43;" x="271.23101" xlink:href="#m4caa3b425e" y="210.402615"/>
     <use style="fill:#f46d43;stroke:#f46d43;" x="276.213535" xlink:href="#m4caa3b425e" y="222.863423"/>
     <use style="fill:#f46d43;stroke:#f46d43;" x="281.196061" xlink:href="#m4caa3b425e" y="207.330481"/>
     <use style="fill:#f46d43;stroke:#f46d43;" x="286.178586" xlink:href="#m4caa3b425e" y="207.301769"/>
     <use style="fill:#f46d43;stroke:#f46d43;" x="291.161111" xlink:href="#m4caa3b425e" y="222.547596"/>
     <use style="fill:#f46d43;stroke:#f46d43;" x="296.143636" xlink:href="#m4caa3b425e" y="207.100788"/>
     <use style="fill:#f46d43;stroke:#f46d43;" x="301.126162" xlink:href="#m4caa3b425e" y="220.422942"/>
     <use style="fill:#f46d43;stroke:#f46d43;" x="306.108687" xlink:href="#m4caa3b425e" y="235.898462"/>
     <use style="fill:#f46d43;stroke:#f46d43;" x="311.091212" xlink:href="#m4caa3b425e" y="223.5525"/>
     <use style="fill:#f46d43;stroke:#f46d43;" x="316.073737" xlink:href="#m4caa3b425e" y="223.236673"/>
     <use style="fill:#f46d43;stroke:#f46d43;" x="321.056263" xlink:href="#m4caa3b425e" y="223.638635"/>
     <use style="fill:#f46d43;stroke:#f46d43;" x="326.038788" xlink:href="#m4caa3b425e" y="232.855038"/>
     <use style="fill:#f46d43;stroke:#f46d43;" x="331.021313" xlink:href="#m4caa3b425e" y="222.576308"/>
     <use style="fill:#f46d43;stroke:#f46d43;" x="336.003838" xlink:href="#m4caa3b425e" y="222.605019"/>
     <use style="fill:#f46d43;stroke:#f46d43;" x="340.986364" xlink:href="#m4caa3b425e" y="232.797615"/>
     <use style="fill:#f46d43;stroke:#f46d43;" x="345.968889" xlink:href="#m4caa3b425e" y="221.313"/>
     <use style="fill:#f46d43;stroke:#f46d43;" x="350.951414" xlink:href="#m4caa3b425e" y="206.555269"/>
     <use style="fill:#f46d43;stroke:#f46d43;" x="355.933939" xlink:href="#m4caa3b425e" y="222.691154"/>
     <use style="fill:#f46d43;stroke:#f46d43;" x="360.916465" xlink:href="#m4caa3b425e" y="207.359192"/>
     <use style="fill:#f46d43;stroke:#f46d43;" x="365.89899" xlink:href="#m4caa3b425e" y="207.330481"/>
     <use style="fill:#f46d43;stroke:#f46d43;" x="370.881515" xlink:href="#m4caa3b425e" y="222.633731"/>
     <use style="fill:#f46d43;stroke:#f46d43;" x="375.86404" xlink:href="#m4caa3b425e" y="207.273058"/>
     <use style="fill:#f46d43;stroke:#f46d43;" x="380.846566" xlink:href="#m4caa3b425e" y="223.006981"/>
     <use style="fill:#f46d43;stroke:#f46d43;" x="385.829091" xlink:href="#m4caa3b425e" y="233.429269"/>
     <use style="fill:#f46d43;stroke:#f46d43;" x="390.811616" xlink:href="#m4caa3b425e" y="223.121827"/>
     <use style="fill:#f46d43;stroke:#f46d43;" x="395.794141" xlink:href="#m4caa3b425e" y="222.863423"/>
     <use style="fill:#f46d43;stroke:#f46d43;" x="400.776667" xlink:href="#m4caa3b425e" y="222.777288"/>
     <use style="fill:#f46d43;stroke:#f46d43;" x="405.759192" xlink:href="#m4caa3b425e" y="232.941173"/>
     <use style="fill:#f46d43;stroke:#f46d43;" x="410.741717" xlink:href="#m4caa3b425e" y="222.002077"/>
     <use style="fill:#f46d43;stroke:#f46d43;" x="415.724242" xlink:href="#m4caa3b425e" y="222.404038"/>
     <use style="fill:#f46d43;stroke:#f46d43;" x="420.706768" xlink:href="#m4caa3b425e" y="232.539212"/>
     <use style="fill:#f46d43;stroke:#f46d43;" x="425.689293" xlink:href="#m4caa3b425e" y="218.384423"/>
     <use style="fill:#f46d43;stroke:#f46d43;" x="430.671818" xlink:href="#m4caa3b425e" y="207.330481"/>
     <use style="fill:#f46d43;stroke:#f46d43;" x="435.654343" xlink:href="#m4caa3b425e" y="222.691154"/>
     <use style="fill:#f46d43;stroke:#f46d43;" x="440.636869" xlink:href="#m4caa3b425e" y="207.301769"/>
     <use style="fill:#f46d43;stroke:#f46d43;" x="445.619394" xlink:href="#m4caa3b425e" y="207.301769"/>
     <use style="fill:#f46d43;stroke:#f46d43;" x="450.601919" xlink:href="#m4caa3b425e" y="222.605019"/>
     <use style="fill:#f46d43;stroke:#f46d43;" x="455.584444" xlink:href="#m4caa3b425e" y="207.330481"/>
     <use style="fill:#f46d43;stroke:#f46d43;" x="460.56697" xlink:href="#m4caa3b425e" y="207.330481"/>
     <use style="fill:#f46d43;stroke:#f46d43;" x="465.549495" xlink:href="#m4caa3b425e" y="222.605019"/>
     <use style="fill:#f46d43;stroke:#f46d43;" x="470.53202" xlink:href="#m4caa3b425e" y="207.387904"/>
     <use style="fill:#f46d43;stroke:#f46d43;" x="475.514545" xlink:href="#m4caa3b425e" y="207.387904"/>
     <use style="fill:#f46d43;stroke:#f46d43;" x="480.497071" xlink:href="#m4caa3b425e" y="222.662442"/>
     <use style="fill:#f46d43;stroke:#f46d43;" x="485.479596" xlink:href="#m4caa3b425e" y="207.675019"/>
     <use style="fill:#f46d43;stroke:#f46d43;" x="490.462121" xlink:href="#m4caa3b425e" y="207.330481"/>
     <use style="fill:#f46d43;stroke:#f46d43;" x="495.444646" xlink:href="#m4caa3b425e" y="222.633731"/>
     <use style="fill:#f46d43;stroke:#f46d43;" x="500.427172" xlink:href="#m4caa3b425e" y="207.50275"/>
     <use style="fill:#f46d43;stroke:#f46d43;" x="505.409697" xlink:href="#m4caa3b425e" y="207.560173"/>
     <use style="fill:#f46d43;stroke:#f46d43;" x="510.392222" xlink:href="#m4caa3b425e" y="222.806"/>
     <use style="fill:#f46d43;stroke:#f46d43;" x="515.374747" xlink:href="#m4caa3b425e" y="207.416615"/>
     <use style="fill:#f46d43;stroke:#f46d43;" x="520.357273" xlink:href="#m4caa3b425e" y="207.416615"/>
     <use style="fill:#f46d43;stroke:#f46d43;" x="525.339798" xlink:href="#m4caa3b425e" y="222.633731"/>
     <use style="fill:#f46d43;stroke:#f46d43;" x="530.322323" xlink:href="#m4caa3b425e" y="207.301769"/>
     <use style="fill:#f46d43;stroke:#f46d43;" x="535.304848" xlink:href="#m4caa3b425e" y="207.330481"/>
     <use style="fill:#f46d43;stroke:#f46d43;" x="540.287374" xlink:href="#m4caa3b425e" y="264.98325"/>
     <use style="fill:#f46d43;stroke:#f46d43;" x="545.269899" xlink:href="#m4caa3b425e" y="309.4"/>
     <use style="fill:#f46d43;stroke:#f46d43;" x="550.252424" xlink:href="#m4caa3b425e" y="309.4"/>
     <use style="fill:#f46d43;stroke:#f46d43;" x="555.234949" xlink:href="#m4caa3b425e" y="309.4"/>
     <use style="fill:#f46d43;stroke:#f46d43;" x="560.217475" xlink:href="#m4caa3b425e" y="309.4"/>
     <use style="fill:#f46d43;stroke:#f46d43;" x="565.2" xlink:href="#m4caa3b425e" y="309.4"/>
    </g>
   </g>
   <g id="line2d_20">
    <path clip-path="url(#pfbad9c5083)" d="M 71.93 280.688462 
L 76.912525 280.688462 
L 81.895051 279.224173 
L 86.877576 280.688462 
L 91.860101 280.688462 
L 96.842626 279.252885 
L 101.825152 280.688462 
L 106.807677 280.688462 
L 111.790202 270.869115 
L 116.772727 162.483058 
L 121.755253 162.684038 
L 126.737778 162.71275 
L 131.720303 164.20575 
L 136.702828 170.551 
L 141.685354 190.850058 
L 146.667879 280.688462 
L 151.650404 280.688462 
L 156.632929 280.688462 
L 161.615455 280.717173 
L 166.59798 280.688462 
L 171.580505 280.688462 
L 176.56303 280.688462 
L 181.545556 280.688462 
L 186.528081 280.688462 
L 191.510606 242.128865 
L 196.493131 170.378731 
L 201.475657 172.733077 
L 206.458182 185.222596 
L 211.440707 185.567135 
L 216.423232 185.193885 
L 221.405758 228.261192 
L 226.388283 280.688462 
L 231.370808 280.688462 
L 236.353333 280.688462 
L 241.335859 280.688462 
L 246.318384 280.688462 
L 251.300909 280.688462 
L 256.283434 280.688462 
L 261.26596 280.688462 
L 266.248485 280.688462 
L 271.23101 222.088212 
L 276.213535 185.423577 
L 281.196061 185.193885 
L 286.178586 177.326923 
L 291.161111 162.770173 
L 296.143636 162.483058 
L 301.126162 247.268231 
L 306.108687 280.688462 
L 311.091212 280.688462 
L 316.073737 280.688462 
L 321.056263 280.688462 
L 326.038788 280.688462 
L 331.021313 280.688462 
L 336.003838 280.688462 
L 340.986364 280.717173 
L 345.968889 280.688462 
L 350.951414 177.757596 
L 355.933939 163.258269 
L 360.916465 162.71275 
L 365.89899 162.741462 
L 370.881515 162.942442 
L 375.86404 162.569192 
L 380.846566 277.587615 
L 385.829091 280.688462 
L 390.811616 280.688462 
L 395.794141 280.688462 
L 400.776667 280.688462 
L 405.759192 280.688462 
L 410.741717 280.717173 
L 415.724242 280.688462 
L 420.706768 280.688462 
L 425.689293 264.954538 
L 430.671818 162.684038 
L 435.654343 162.971154 
L 440.636869 162.827596 
L 445.619394 162.655327 
L 450.601919 162.885019 
L 455.584444 162.626615 
L 460.56697 162.71275 
L 465.549495 162.942442 
L 470.53202 162.798885 
L 475.514545 162.798885 
L 480.497071 162.971154 
L 485.479596 162.684038 
L 490.462121 162.540481 
L 495.444646 162.827596 
L 500.427172 162.425635 
L 505.409697 162.511769 
L 510.392222 162.626615 
L 515.374747 162.655327 
L 520.357273 162.913731 
L 525.339798 163.373115 
L 530.322323 162.684038 
L 535.304848 162.655327 
L 540.287374 163.487962 
L 545.269899 164.148327 
L 550.252424 164.119615 
L 555.234949 164.119615 
L 560.217475 211.522365 
L 565.2 309.4 
" style="fill:none;stroke:#2c7bb6;stroke-dasharray:12.8,3.2,2,3.2;stroke-dashoffset:0;stroke-width:2;"/>
    <defs>
     <path d="M 3 0 
L -3 -3 
L -3 3 
z
" id="m37a96a0f98" style="stroke:#2c7bb6;stroke-linejoin:miter;"/>
    </defs>
    <g clip-path="url(#pfbad9c5083)">
     <use style="fill:#2c7bb6;stroke:#2c7bb6;stroke-linejoin:miter;" x="71.93" xlink:href="#m37a96a0f98" y="280.688462"/>
     <use style="fill:#2c7bb6;stroke:#2c7bb6;stroke-linejoin:miter;" x="76.912525" xlink:href="#m37a96a0f98" y="280.688462"/>
     <use style="fill:#2c7bb6;stroke:#2c7bb6;stroke-linejoin:miter;" x="81.895051" xlink:href="#m37a96a0f98" y="279.224173"/>
     <use style="fill:#2c7bb6;stroke:#2c7bb6;stroke-linejoin:miter;" x="86.877576" xlink:href="#m37a96a0f98" y="280.688462"/>
     <use style="fill:#2c7bb6;stroke:#2c7bb6;stroke-linejoin:miter;" x="91.860101" xlink:href="#m37a96a0f98" y="280.688462"/>
     <use style="fill:#2c7bb6;stroke:#2c7bb6;stroke-linejoin:miter;" x="96.842626" xlink:href="#m37a96a0f98" y="279.252885"/>
     <use style="fill:#2c7bb6;stroke:#2c7bb6;stroke-linejoin:miter;" x="101.825152" xlink:href="#m37a96a0f98" y="280.688462"/>
     <use style="fill:#2c7bb6;stroke:#2c7bb6;stroke-linejoin:miter;" x="106.807677" xlink:href="#m37a96a0f98" y="280.688462"/>
     <use style="fill:#2c7bb6;stroke:#2c7bb6;stroke-linejoin:miter;" x="111.790202" xlink:href="#m37a96a0f98" y="270.869115"/>
     <use style="fill:#2c7bb6;stroke:#2c7bb6;stroke-linejoin:miter;" x="116.772727" xlink:href="#m37a96a0f98" y="162.483058"/>
     <use style="fill:#2c7bb6;stroke:#2c7bb6;stroke-linejoin:miter;" x="121.755253" xlink:href="#m37a96a0f98" y="162.684038"/>
     <use style="fill:#2c7bb6;stroke:#2c7bb6;stroke-linejoin:miter;" x="126.737778" xlink:href="#m37a96a0f98" y="162.71275"/>
     <use style="fill:#2c7bb6;stroke:#2c7bb6;stroke-linejoin:miter;" x="131.720303" xlink:href="#m37a96a0f98" y="164.20575"/>
     <use style="fill:#2c7bb6;stroke:#2c7bb6;stroke-linejoin:miter;" x="136.702828" xlink:href="#m37a96a0f98" y="170.551"/>
     <use style="fill:#2c7bb6;stroke:#2c7bb6;stroke-linejoin:miter;" x="141.685354" xlink:href="#m37a96a0f98" y="190.850058"/>
     <use style="fill:#2c7bb6;stroke:#2c7bb6;stroke-linejoin:miter;" x="146.667879" xlink:href="#m37a96a0f98" y="280.688462"/>
     <use style="fill:#2c7bb6;stroke:#2c7bb6;stroke-linejoin:miter;" x="151.650404" xlink:href="#m37a96a0f98" y="280.688462"/>
     <use style="fill:#2c7bb6;stroke:#2c7bb6;stroke-linejoin:miter;" x="156.632929" xlink:href="#m37a96a0f98" y="280.688462"/>
     <use style="fill:#2c7bb6;stroke:#2c7bb6;stroke-linejoin:miter;" x="161.615455" xlink:href="#m37a96a0f98" y="280.717173"/>
     <use style="fill:#2c7bb6;stroke:#2c7bb6;stroke-linejoin:miter;" x="166.59798" xlink:href="#m37a96a0f98" y="280.688462"/>
     <use style="fill:#2c7bb6;stroke:#2c7bb6;stroke-linejoin:miter;" x="171.580505" xlink:href="#m37a96a0f98" y="280.688462"/>
     <use style="fill:#2c7bb6;stroke:#2c7bb6;stroke-linejoin:miter;" x="176.56303" xlink:href="#m37a96a0f98" y="280.688462"/>
     <use style="fill:#2c7bb6;stroke:#2c7bb6;stroke-linejoin:miter;" x="181.545556" xlink:href="#m37a96a0f98" y="280.688462"/>
     <use style="fill:#2c7bb6;stroke:#2c7bb6;stroke-linejoin:miter;" x="186.528081" xlink:href="#m37a96a0f98" y="280.688462"/>
     <use style="fill:#2c7bb6;stroke:#2c7bb6;stroke-linejoin:miter;" x="191.510606" xlink:href="#m37a96a0f98" y="242.128865"/>
     <use style="fill:#2c7bb6;stroke:#2c7bb6;stroke-linejoin:miter;" x="196.493131" xlink:href="#m37a96a0f98" y="170.378731"/>
     <use style="fill:#2c7bb6;stroke:#2c7bb6;stroke-linejoin:miter;" x="201.475657" xlink:href="#m37a96a0f98" y="172.733077"/>
     <use style="fill:#2c7bb6;stroke:#2c7bb6;stroke-linejoin:miter;" x="206.458182" xlink:href="#m37a96a0f98" y="185.222596"/>
     <use style="fill:#2c7bb6;stroke:#2c7bb6;stroke-linejoin:miter;" x="211.440707" xlink:href="#m37a96a0f98" y="185.567135"/>
     <use style="fill:#2c7bb6;stroke:#2c7bb6;stroke-linejoin:miter;" x="216.423232" xlink:href="#m37a96a0f98" y="185.193885"/>
     <use style="fill:#2c7bb6;stroke:#2c7bb6;stroke-linejoin:miter;" x="221.405758" xlink:href="#m37a96a0f98" y="228.261192"/>
     <use style="fill:#2c7bb6;stroke:#2c7bb6;stroke-linejoin:miter;" x="226.388283" xlink:href="#m37a96a0f98" y="280.688462"/>
     <use style="fill:#2c7bb6;stroke:#2c7bb6;stroke-linejoin:miter;" x="231.370808" xlink:href="#m37a96a0f98" y="280.688462"/>
     <use style="fill:#2c7bb6;stroke:#2c7bb6;stroke-linejoin:miter;" x="236.353333" xlink:href="#m37a96a0f98" y="280.688462"/>
     <use style="fill:#2c7bb6;stroke:#2c7bb6;stroke-linejoin:miter;" x="241.335859" xlink:href="#m37a96a0f98" y="280.688462"/>
     <use style="fill:#2c7bb6;stroke:#2c7bb6;stroke-linejoin:miter;" x="246.318384" xlink:href="#m37a96a0f98" y="280.688462"/>
     <use style="fill:#2c7bb6;stroke:#2c7bb6;stroke-linejoin:miter;" x="251.300909" xlink:href="#m37a96a0f98" y="280.688462"/>
     <use style="fill:#2c7bb6;stroke:#2c7bb6;stroke-linejoin:miter;" x="256.283434" xlink:href="#m37a96a0f98" y="280.688462"/>
     <use style="fill:#2c7bb6;stroke:#2c7bb6;stroke-linejoin:miter;" x="261.26596" xlink:href="#m37a96a0f98" y="280.688462"/>
     <use style="fill:#2c7bb6;stroke:#2c7bb6;stroke-linejoin:miter;" x="266.248485" xlink:href="#m37a96a0f98" y="280.688462"/>
     <use style="fill:#2c7bb6;stroke:#2c7bb6;stroke-linejoin:miter;" x="271.23101" xlink:href="#m37a96a0f98" y="222.088212"/>
     <use style="fill:#2c7bb6;stroke:#2c7bb6;stroke-linejoin:miter;" x="276.213535" xlink:href="#m37a96a0f98" y="185.423577"/>
     <use style="fill:#2c7bb6;stroke:#2c7bb6;stroke-linejoin:miter;" x="281.196061" xlink:href="#m37a96a0f98" y="185.193885"/>
     <use style="fill:#2c7bb6;stroke:#2c7bb6;stroke-linejoin:miter;" x="286.178586" xlink:href="#m37a96a0f98" y="177.326923"/>
     <use style="fill:#2c7bb6;stroke:#2c7bb6;stroke-linejoin:miter;" x="291.161111" xlink:href="#m37a96a0f98" y="162.770173"/>
     <use style="fill:#2c7bb6;stroke:#2c7bb6;stroke-linejoin:miter;" x="296.143636" xlink:href="#m37a96a0f98" y="162.483058"/>
     <use style="fill:#2c7bb6;stroke:#2c7bb6;stroke-linejoin:miter;" x="301.126162" xlink:href="#m37a96a0f98" y="247.268231"/>
     <use style="fill:#2c7bb6;stroke:#2c7bb6;stroke-linejoin:miter;" x="306.108687" xlink:href="#m37a96a0f98" y="280.688462"/>
     <use style="fill:#2c7bb6;stroke:#2c7bb6;stroke-linejoin:miter;" x="311.091212" xlink:href="#m37a96a0f98" y="280.688462"/>
     <use style="fill:#2c7bb6;stroke:#2c7bb6;stroke-linejoin:miter;" x="316.073737" xlink:href="#m37a96a0f98" y="280.688462"/>
     <use style="fill:#2c7bb6;stroke:#2c7bb6;stroke-linejoin:miter;" x="321.056263" xlink:href="#m37a96a0f98" y="280.688462"/>
     <use style="fill:#2c7bb6;stroke:#2c7bb6;stroke-linejoin:miter;" x="326.038788" xlink:href="#m37a96a0f98" y="280.688462"/>
     <use style="fill:#2c7bb6;stroke:#2c7bb6;stroke-linejoin:miter;" x="331.021313" xlink:href="#m37a96a0f98" y="280.688462"/>
     <use style="fill:#2c7bb6;stroke:#2c7bb6;stroke-linejoin:miter;" x="336.003838" xlink:href="#m37a96a0f98" y="280.688462"/>
     <use style="fill:#2c7bb6;stroke:#2c7bb6;stroke-linejoin:miter;" x="340.986364" xlink:href="#m37a96a0f98" y="280.717173"/>
     <use style="fill:#2c7bb6;stroke:#2c7bb6;stroke-linejoin:miter;" x="345.968889" xlink:href="#m37a96a0f98" y="280.688462"/>
     <use style="fill:#2c7bb6;stroke:#2c7bb6;stroke-linejoin:miter;" x="350.951414" xlink:href="#m37a96a0f98" y="177.757596"/>
     <use style="fill:#2c7bb6;stroke:#2c7bb6;stroke-linejoin:miter;" x="355.933939" xlink:href="#m37a96a0f98" y="163.258269"/>
     <use style="fill:#2c7bb6;stroke:#2c7bb6;stroke-linejoin:miter;" x="360.916465" xlink:href="#m37a96a0f98" y="162.71275"/>
     <use style="fill:#2c7bb6;stroke:#2c7bb6;stroke-linejoin:miter;" x="365.89899" xlink:href="#m37a96a0f98" y="162.741462"/>
     <use style="fill:#2c7bb6;stroke:#2c7bb6;stroke-linejoin:miter;" x="370.881515" xlink:href="#m37a96a0f98" y="162.942442"/>
     <use style="fill:#2c7bb6;stroke:#2c7bb6;stroke-linejoin:miter;" x="375.86404" xlink:href="#m37a96a0f98" y="162.569192"/>
     <use style="fill:#2c7bb6;stroke:#2c7bb6;stroke-linejoin:miter;" x="380.846566" xlink:href="#m37a96a0f98" y="277.587615"/>
     <use style="fill:#2c7bb6;stroke:#2c7bb6;stroke-linejoin:miter;" x="385.829091" xlink:href="#m37a96a0f98" y="280.688462"/>
     <use style="fill:#2c7bb6;stroke:#2c7bb6;stroke-linejoin:miter;" x="390.811616" xlink:href="#m37a96a0f98" y="280.688462"/>
     <use style="fill:#2c7bb6;stroke:#2c7bb6;stroke-linejoin:miter;" x="395.794141" xlink:href="#m37a96a0f98" y="280.688462"/>
     <use style="fill:#2c7bb6;stroke:#2c7bb6;stroke-linejoin:miter;" x="400.776667" xlink:href="#m37a96a0f98" y="280.688462"/>
     <use style="fill:#2c7bb6;stroke:#2c7bb6;stroke-linejoin:miter;" x="405.759192" xlink:href="#m37a96a0f98" y="280.688462"/>
     <use style="fill:#2c7bb6;stroke:#2c7bb6;stroke-linejoin:miter;" x="410.741717" xlink:href="#m37a96a0f98" y="280.717173"/>
     <use style="fill:#2c7bb6;stroke:#2c7bb6;stroke-linejoin:miter;" x="415.724242" xlink:href="#m37a96a0f98" y="280.688462"/>
     <use style="fill:#2c7bb6;stroke:#2c7bb6;stroke-linejoin:miter;" x="420.706768" xlink:href="#m37a96a0f98" y="280.688462"/>
     <use style="fill:#2c7bb6;stroke:#2c7bb6;stroke-linejoin:miter;" x="425.689293" xlink:href="#m37a96a0f98" y="264.954538"/>
     <use style="fill:#2c7bb6;stroke:#2c7bb6;stroke-linejoin:miter;" x="430.671818" xlink:href="#m37a96a0f98" y="162.684038"/>
     <use style="fill:#2c7bb6;stroke:#2c7bb6;stroke-linejoin:miter;" x="435.654343" xlink:href="#m37a96a0f98" y="162.971154"/>
     <use style="fill:#2c7bb6;stroke:#2c7bb6;stroke-linejoin:miter;" x="440.636869" xlink:href="#m37a96a0f98" y="162.827596"/>
     <use style="fill:#2c7bb6;stroke:#2c7bb6;stroke-linejoin:miter;" x="445.619394" xlink:href="#m37a96a0f98" y="162.655327"/>
     <use style="fill:#2c7bb6;stroke:#2c7bb6;stroke-linejoin:miter;" x="450.601919" xlink:href="#m37a96a0f98" y="162.885019"/>
     <use style="fill:#2c7bb6;stroke:#2c7bb6;stroke-linejoin:miter;" x="455.584444" xlink:href="#m37a96a0f98" y="162.626615"/>
     <use style="fill:#2c7bb6;stroke:#2c7bb6;stroke-linejoin:miter;" x="460.56697" xlink:href="#m37a96a0f98" y="162.71275"/>
     <use style="fill:#2c7bb6;stroke:#2c7bb6;stroke-linejoin:miter;" x="465.549495" xlink:href="#m37a96a0f98" y="162.942442"/>
     <use style="fill:#2c7bb6;stroke:#2c7bb6;stroke-linejoin:miter;" x="470.53202" xlink:href="#m37a96a0f98" y="162.798885"/>
     <use style="fill:#2c7bb6;stroke:#2c7bb6;stroke-linejoin:miter;" x="475.514545" xlink:href="#m37a96a0f98" y="162.798885"/>
     <use style="fill:#2c7bb6;stroke:#2c7bb6;stroke-linejoin:miter;" x="480.497071" xlink:href="#m37a96a0f98" y="162.971154"/>
     <use style="fill:#2c7bb6;stroke:#2c7bb6;stroke-linejoin:miter;" x="485.479596" xlink:href="#m37a96a0f98" y="162.684038"/>
     <use style="fill:#2c7bb6;stroke:#2c7bb6;stroke-linejoin:miter;" x="490.462121" xlink:href="#m37a96a0f98" y="162.540481"/>
     <use style="fill:#2c7bb6;stroke:#2c7bb6;stroke-linejoin:miter;" x="495.444646" xlink:href="#m37a96a0f98" y="162.827596"/>
     <use style="fill:#2c7bb6;stroke:#2c7bb6;stroke-linejoin:miter;" x="500.427172" xlink:href="#m37a96a0f98" y="162.425635"/>
     <use style="fill:#2c7bb6;stroke:#2c7bb6;stroke-linejoin:miter;" x="505.409697" xlink:href="#m37a96a0f98" y="162.511769"/>
     <use style="fill:#2c7bb6;stroke:#2c7bb6;stroke-linejoin:miter;" x="510.392222" xlink:href="#m37a96a0f98" y="162.626615"/>
     <use style="fill:#2c7bb6;stroke:#2c7bb6;stroke-linejoin:miter;" x="515.374747" xlink:href="#m37a96a0f98" y="162.655327"/>
     <use style="fill:#2c7bb6;stroke:#2c7bb6;stroke-linejoin:miter;" x="520.357273" xlink:href="#m37a96a0f98" y="162.913731"/>
     <use style="fill:#2c7bb6;stroke:#2c7bb6;stroke-linejoin:miter;" x="525.339798" xlink:href="#m37a96a0f98" y="163.373115"/>
     <use style="fill:#2c7bb6;stroke:#2c7bb6;stroke-linejoin:miter;" x="530.322323" xlink:href="#m37a96a0f98" y="162.684038"/>
     <use style="fill:#2c7bb6;stroke:#2c7bb6;stroke-linejoin:miter;" x="535.304848" xlink:href="#m37a96a0f98" y="162.655327"/>
     <use style="fill:#2c7bb6;stroke:#2c7bb6;stroke-linejoin:miter;" x="540.287374" xlink:href="#m37a96a0f98" y="163.487962"/>
     <use style="fill:#2c7bb6;stroke:#2c7bb6;stroke-linejoin:miter;" x="545.269899" xlink:href="#m37a96a0f98" y="164.148327"/>
     <use style="fill:#2c7bb6;stroke:#2c7bb6;stroke-linejoin:miter;" x="550.252424" xlink:href="#m37a96a0f98" y="164.119615"/>
     <use style="fill:#2c7bb6;stroke:#2c7bb6;stroke-linejoin:miter;" x="555.234949" xlink:href="#m37a96a0f98" y="164.119615"/>
     <use style="fill:#2c7bb6;stroke:#2c7bb6;stroke-linejoin:miter;" x="560.217475" xlink:href="#m37a96a0f98" y="211.522365"/>
     <use style="fill:#2c7bb6;stroke:#2c7bb6;stroke-linejoin:miter;" x="565.2" xlink:href="#m37a96a0f98" y="309.4"/>
    </g>
   </g>
   <g id="line2d_21">
    <path clip-path="url(#pfbad9c5083)" d="M 71.93 240.492308 
L 565.2 240.492308 
" style="fill:none;stroke:#000000;stroke-dasharray:1.5,2.475;stroke-dashoffset:0;stroke-width:1.5;"/>
   </g>
   <g id="patch_3">
    <path d="M 71.93 309.4 
L 71.93 10.8 
" style="fill:none;stroke:#000000;stroke-linecap:square;stroke-linejoin:miter;stroke-width:0.8;"/>
   </g>
   <g id="patch_4">
    <path d="M 565.2 309.4 
L 565.2 10.8 
" style="fill:none;stroke:#000000;stroke-linecap:square;stroke-linejoin:miter;stroke-width:0.8;"/>
   </g>
   <g id="patch_5">
    <path d="M 71.93 309.4 
L 565.2 309.4 
" style="fill:none;stroke:#000000;stroke-linecap:square;stroke-linejoin:miter;stroke-width:0.8;"/>
   </g>
   <g id="patch_6">
    <path d="M 71.93 10.8 
L 565.2 10.8 
" style="fill:none;stroke:#000000;stroke-linecap:square;stroke-linejoin:miter;stroke-width:0.8;"/>
   </g>
   <g id="legend_1">
    <g id="patch_7">
     <path d="M 158.06625 68.865 
L 479.06375 68.865 
Q 482.26375 68.865 482.26375 65.665 
L 482.26375 22 
Q 482.26375 18.8 479.06375 18.8 
L 158.06625 18.8 
Q 154.86625 18.8 154.86625 22 
L 154.86625 65.665 
Q 154.86625 68.865 158.06625 68.865 
z
" style="fill:#ffffff;opacity:0.8;stroke:#cccccc;stroke-linejoin:miter;"/>
    </g>
    <g id="line2d_22">
     <path d="M 161.26625 31.0525 
L 193.26625 31.0525 
" style="fill:none;stroke:#d73027;stroke-linecap:square;stroke-width:2;"/>
    </g>
    <g id="line2d_23">
     <g>
      <use style="fill:#d73027;stroke:#d73027;" x="177.26625" xlink:href="#md6ee5d9e43" y="31.0525"/>
     </g>
    </g>
    <g id="text_14">
     <!-- B: r=3000,w=6 -->
     <g transform="translate(206.06625 36.6525)scale(0.16 -0.16)">
      <defs>
       <path d="M 469 0 
L 469 4581 
L 2188 4581 
Q 2713 4581 3030 4442 
Q 3347 4303 3526 4014 
Q 3706 3725 3706 3409 
Q 3706 3116 3547 2856 
Q 3388 2597 3066 2438 
Q 3481 2316 3704 2022 
Q 3928 1728 3928 1328 
Q 3928 1006 3792 729 
Q 3656 453 3456 303 
Q 3256 153 2954 76 
Q 2653 0 2216 0 
L 469 0 
z
M 1075 2656 
L 2066 2656 
Q 2469 2656 2644 2709 
Q 2875 2778 2992 2937 
Q 3109 3097 3109 3338 
Q 3109 3566 3000 3739 
Q 2891 3913 2687 3977 
Q 2484 4041 1991 4041 
L 1075 4041 
L 1075 2656 
z
M 1075 541 
L 2216 541 
Q 2509 541 2628 563 
Q 2838 600 2978 687 
Q 3119 775 3209 942 
Q 3300 1109 3300 1328 
Q 3300 1584 3169 1773 
Q 3038 1963 2805 2039 
Q 2572 2116 2134 2116 
L 1075 2116 
L 1075 541 
z
" id="ArialMT-42" transform="scale(0.015625)"/>
       <path d="M 578 2678 
L 578 3319 
L 1219 3319 
L 1219 2678 
L 578 2678 
z
M 578 0 
L 578 641 
L 1219 641 
L 1219 0 
L 578 0 
z
" id="ArialMT-3a" transform="scale(0.015625)"/>
       <path d="M 416 0 
L 416 3319 
L 922 3319 
L 922 2816 
Q 1116 3169 1280 3281 
Q 1444 3394 1641 3394 
Q 1925 3394 2219 3213 
L 2025 2691 
Q 1819 2813 1613 2813 
Q 1428 2813 1281 2702 
Q 1134 2591 1072 2394 
Q 978 2094 978 1738 
L 978 0 
L 416 0 
z
" id="ArialMT-72" transform="scale(0.015625)"/>
       <path d="M 3381 2694 
L 356 2694 
L 356 3219 
L 3381 3219 
L 3381 2694 
z
M 3381 1303 
L 356 1303 
L 356 1828 
L 3381 1828 
L 3381 1303 
z
" id="ArialMT-3d" transform="scale(0.015625)"/>
       <path d="M 569 0 
L 569 641 
L 1209 641 
L 1209 0 
Q 1209 -353 1084 -570 
Q 959 -788 688 -906 
L 531 -666 
Q 709 -588 793 -436 
Q 878 -284 888 0 
L 569 0 
z
" id="ArialMT-2c" transform="scale(0.015625)"/>
       <path d="M 1034 0 
L 19 3319 
L 600 3319 
L 1128 1403 
L 1325 691 
Q 1338 744 1497 1375 
L 2025 3319 
L 2603 3319 
L 3100 1394 
L 3266 759 
L 3456 1400 
L 4025 3319 
L 4572 3319 
L 3534 0 
L 2950 0 
L 2422 1988 
L 2294 2553 
L 1622 0 
L 1034 0 
z
" id="ArialMT-77" transform="scale(0.015625)"/>
      </defs>
      <use xlink:href="#ArialMT-42"/>
      <use x="66.699219" xlink:href="#ArialMT-3a"/>
      <use x="94.482422" xlink:href="#ArialMT-20"/>
      <use x="122.265625" xlink:href="#ArialMT-72"/>
      <use x="155.566406" xlink:href="#ArialMT-3d"/>
      <use x="213.964844" xlink:href="#ArialMT-33"/>
      <use x="269.580078" xlink:href="#ArialMT-30"/>
      <use x="325.195312" xlink:href="#ArialMT-30"/>
      <use x="380.810547" xlink:href="#ArialMT-30"/>
      <use x="436.425781" xlink:href="#ArialMT-2c"/>
      <use x="464.208984" xlink:href="#ArialMT-77"/>
      <use x="536.425781" xlink:href="#ArialMT-3d"/>
      <use x="594.824219" xlink:href="#ArialMT-36"/>
     </g>
    </g>
    <g id="line2d_24">
     <path d="M 161.26625 53.685 
L 193.26625 53.685 
" style="fill:none;stroke:#f46d43;stroke-dasharray:7.4,3.2;stroke-dashoffset:0;stroke-width:2;"/>
    </g>
    <g id="line2d_25">
     <g>
      <use style="fill:#f46d43;stroke:#f46d43;" x="177.26625" xlink:href="#m4caa3b425e" y="53.685"/>
     </g>
    </g>
    <g id="text_15">
     <!-- R: r=1200,w=3 -->
     <g transform="translate(206.06625 59.285)scale(0.16 -0.16)">
      <defs>
       <path d="M 503 0 
L 503 4581 
L 2534 4581 
Q 3147 4581 3465 4457 
Q 3784 4334 3975 4021 
Q 4166 3709 4166 3331 
Q 4166 2844 3850 2509 
Q 3534 2175 2875 2084 
Q 3116 1969 3241 1856 
Q 3506 1613 3744 1247 
L 4541 0 
L 3778 0 
L 3172 953 
Q 2906 1366 2734 1584 
Q 2563 1803 2427 1890 
Q 2291 1978 2150 2013 
Q 2047 2034 1813 2034 
L 1109 2034 
L 1109 0 
L 503 0 
z
M 1109 2559 
L 2413 2559 
Q 2828 2559 3062 2645 
Q 3297 2731 3419 2920 
Q 3541 3109 3541 3331 
Q 3541 3656 3305 3865 
Q 3069 4075 2559 4075 
L 1109 4075 
L 1109 2559 
z
" id="ArialMT-52" transform="scale(0.015625)"/>
      </defs>
      <use xlink:href="#ArialMT-52"/>
      <use x="72.216797" xlink:href="#ArialMT-3a"/>
      <use x="100" xlink:href="#ArialMT-20"/>
      <use x="127.783203" xlink:href="#ArialMT-72"/>
      <use x="161.083984" xlink:href="#ArialMT-3d"/>
      <use x="219.482422" xlink:href="#ArialMT-31"/>
      <use x="275.097656" xlink:href="#ArialMT-32"/>
      <use x="330.712891" xlink:href="#ArialMT-30"/>
      <use x="386.328125" xlink:href="#ArialMT-30"/>
      <use x="441.943359" xlink:href="#ArialMT-2c"/>
      <use x="469.726562" xlink:href="#ArialMT-77"/>
      <use x="541.943359" xlink:href="#ArialMT-3d"/>
      <use x="600.341797" xlink:href="#ArialMT-33"/>
     </g>
    </g>
    <g id="line2d_26">
     <path d="M 343.01625 31.0525 
L 375.01625 31.0525 
" style="fill:none;stroke:#2c7bb6;stroke-dasharray:12.8,3.2,2,3.2;stroke-dashoffset:0;stroke-width:2;"/>
    </g>
    <g id="line2d_27">
     <g>
      <use style="fill:#2c7bb6;stroke:#2c7bb6;stroke-linejoin:miter;" x="359.01625" xlink:href="#m37a96a0f98" y="31.0525"/>
     </g>
    </g>
    <g id="text_16">
     <!-- BE: r=0,w=1 -->
     <g transform="translate(387.81625 36.6525)scale(0.16 -0.16)">
      <defs>
       <path d="M 506 0 
L 506 4581 
L 3819 4581 
L 3819 4041 
L 1113 4041 
L 1113 2638 
L 3647 2638 
L 3647 2100 
L 1113 2100 
L 1113 541 
L 3925 541 
L 3925 0 
L 506 0 
z
" id="ArialMT-45" transform="scale(0.015625)"/>
      </defs>
      <use xlink:href="#ArialMT-42"/>
      <use x="66.699219" xlink:href="#ArialMT-45"/>
      <use x="133.398438" xlink:href="#ArialMT-3a"/>
      <use x="161.181641" xlink:href="#ArialMT-20"/>
      <use x="188.964844" xlink:href="#ArialMT-72"/>
      <use x="222.265625" xlink:href="#ArialMT-3d"/>
      <use x="280.664062" xlink:href="#ArialMT-30"/>
      <use x="336.279297" xlink:href="#ArialMT-2c"/>
      <use x="364.0625" xlink:href="#ArialMT-77"/>
      <use x="436.279297" xlink:href="#ArialMT-3d"/>
      <use x="494.677734" xlink:href="#ArialMT-31"/>
     </g>
    </g>
   </g>
  </g>
 </g>
 <defs>
  <clipPath id="pfbad9c5083">
   <rect height="298.6" width="493.27" x="71.93" y="10.8"/>
  </clipPath>
 </defs>
</svg>
